<svg id="svg" version="1.1" width="400" height="132.97297297297297" xmlns="http://www.w3.org/2000/svg" xmlns:xlink="http://www.w3.org/1999/xlink" style="display: block;"><g id="svgg"><path id="path0" d="M330.041 74.208 C 330.018 93.619,330.056 109.500,330.125 109.500 C 330.238 109.500,330.237 85.653,330.124 51.667 C 330.100 44.654,330.063 54.798,330.041 74.208 M206.905 73.833 C 206.905 75.987,206.929 76.869,206.958 75.792 C 206.987 74.715,206.987 72.952,206.958 71.875 C 206.929 70.798,206.905 71.679,206.905 73.833 " stroke="none" fill="#000000" fill-rule="evenodd"></path><path id="path1" d="M300.000 19.500 C 300.000 19.592,299.587 19.667,299.083 19.667 C 298.579 19.667,298.167 19.742,298.167 19.833 C 298.167 19.925,298.017 20.000,297.833 20.000 C 297.650 20.000,297.500 20.075,297.500 20.167 C 297.500 20.258,297.375 20.333,297.222 20.333 C 296.872 20.333,295.000 22.218,295.000 22.571 C 295.000 22.715,294.925 22.833,294.833 22.833 C 294.742 22.833,294.667 23.015,294.667 23.236 C 294.667 23.458,294.580 23.668,294.474 23.703 C 293.762 23.940,293.724 34.341,294.434 34.613 C 294.562 34.662,294.667 34.919,294.667 35.184 C 294.667 35.450,294.742 35.667,294.833 35.667 C 294.925 35.667,295.000 35.779,295.000 35.917 C 295.000 36.054,295.075 36.167,295.167 36.167 C 295.258 36.167,295.333 36.271,295.333 36.399 C 295.333 36.764,297.255 38.328,297.708 38.331 C 297.869 38.332,298.000 38.408,298.000 38.500 C 298.000 38.592,298.300 38.667,298.667 38.667 C 299.033 38.667,299.333 38.742,299.333 38.833 C 299.333 38.943,304.582 39.000,314.745 39.000 L 330.157 39.000 330.203 75.278 C 330.240 104.119,330.293 111.570,330.458 111.625 C 330.573 111.663,330.667 111.876,330.667 112.097 C 330.667 112.319,330.742 112.500,330.833 112.500 C 330.925 112.500,331.000 112.612,331.000 112.750 C 331.000 113.076,332.924 115.000,333.250 115.000 C 333.387 115.000,333.500 115.075,333.500 115.167 C 333.500 115.258,333.683 115.333,333.907 115.333 C 334.131 115.333,334.360 115.408,334.417 115.500 C 334.483 115.608,337.530 115.667,343.010 115.667 C 348.559 115.667,351.500 115.609,351.500 115.500 C 351.500 115.408,351.725 115.333,352.000 115.333 C 352.275 115.333,352.500 115.258,352.500 115.167 C 352.500 115.075,352.613 115.000,352.750 115.000 C 352.887 115.000,353.000 114.943,353.000 114.874 C 353.000 114.805,353.225 114.648,353.500 114.527 C 353.775 114.405,354.000 114.233,354.000 114.145 C 354.000 114.057,354.169 113.804,354.375 113.584 C 355.119 112.788,355.500 112.140,355.500 111.669 C 355.500 111.484,355.575 111.333,355.667 111.333 C 355.777 111.333,355.833 99.167,355.833 75.167 L 355.833 39.000 371.240 39.000 C 381.332 39.000,386.683 38.942,386.750 38.833 C 386.807 38.742,387.069 38.667,387.333 38.667 C 387.598 38.667,387.860 38.592,387.917 38.500 C 387.973 38.408,388.165 38.333,388.343 38.333 C 388.521 38.333,388.667 38.258,388.667 38.167 C 388.667 38.075,388.776 38.000,388.909 38.000 C 389.507 38.000,391.500 35.568,391.500 34.838 C 391.500 34.663,391.575 34.473,391.667 34.417 C 391.772 34.352,391.833 32.415,391.833 29.157 C 391.833 25.830,391.774 24.000,391.667 24.000 C 391.575 24.000,391.498 23.794,391.496 23.542 C 391.494 23.290,391.346 22.896,391.167 22.667 C 390.987 22.438,390.839 22.190,390.837 22.116 C 390.831 21.891,389.130 20.333,388.891 20.333 C 388.767 20.333,388.667 20.258,388.667 20.167 C 388.667 20.075,388.479 20.000,388.250 20.000 C 388.021 20.000,387.833 19.925,387.833 19.833 C 387.833 19.742,387.421 19.667,386.917 19.667 C 386.412 19.667,386.000 19.592,386.000 19.500 C 386.000 19.389,371.556 19.333,343.000 19.333 C 314.444 19.333,300.000 19.389,300.000 19.500 M266.583 20.167 C 266.527 20.258,266.264 20.333,266.000 20.333 C 265.736 20.333,265.473 20.408,265.417 20.500 C 265.360 20.592,265.175 20.667,265.004 20.667 C 264.834 20.667,264.425 20.929,264.095 21.250 C 263.764 21.571,263.439 21.833,263.371 21.833 C 263.160 21.833,262.167 22.999,262.167 23.246 C 262.167 23.375,262.092 23.527,262.000 23.583 C 261.908 23.640,261.833 23.832,261.833 24.010 C 261.833 24.188,261.758 24.333,261.667 24.333 C 261.575 24.333,261.500 24.666,261.500 25.073 C 261.500 25.481,261.425 25.860,261.333 25.917 C 261.223 25.985,261.167 40.193,261.167 68.000 C 261.167 95.807,261.223 110.015,261.333 110.083 C 261.425 110.140,261.500 110.515,261.500 110.917 C 261.500 111.318,261.575 111.693,261.667 111.750 C 261.758 111.807,261.833 111.999,261.833 112.177 C 261.833 112.354,261.908 112.500,262.000 112.500 C 262.092 112.500,262.167 112.621,262.167 112.768 C 262.167 113.091,264.108 115.000,264.436 115.000 C 264.563 115.000,264.667 115.075,264.667 115.167 C 264.667 115.258,264.850 115.333,265.073 115.333 C 265.297 115.333,265.527 115.408,265.583 115.500 C 265.650 115.608,268.696 115.667,274.177 115.667 C 279.726 115.667,282.667 115.609,282.667 115.500 C 282.667 115.408,282.802 115.333,282.967 115.333 C 283.339 115.333,284.164 114.961,284.165 114.792 C 284.166 114.723,284.267 114.667,284.390 114.667 C 284.512 114.667,284.906 114.325,285.265 113.908 C 285.623 113.490,286.010 113.046,286.125 112.920 C 286.240 112.794,286.333 112.610,286.333 112.512 C 286.333 112.414,286.408 112.333,286.500 112.333 C 286.592 112.333,286.667 112.108,286.667 111.833 C 286.667 111.558,286.742 111.333,286.833 111.333 C 286.944 111.333,287.000 96.753,287.000 67.927 C 287.000 39.168,286.944 24.485,286.833 24.417 C 286.742 24.360,286.667 24.168,286.667 23.990 C 286.667 23.812,286.592 23.667,286.500 23.667 C 286.408 23.667,286.331 23.535,286.328 23.375 C 286.322 23.062,285.957 22.500,285.760 22.500 C 285.694 22.500,285.337 22.185,284.967 21.799 C 284.278 21.082,283.641 20.667,283.231 20.667 C 283.104 20.667,283.000 20.592,283.000 20.500 C 283.000 20.408,282.742 20.333,282.427 20.333 C 282.111 20.333,281.807 20.258,281.750 20.167 C 281.684 20.060,278.974 20.000,274.167 20.000 C 269.360 20.000,266.650 20.060,266.583 20.167 " stroke="none" fill="#808080" fill-rule="evenodd"></path><path id="path2" d="" stroke="none" fill="#ffffff" fill-rule="evenodd"></path><path id="path3" d="M75.917 19.833 C 75.859 19.927,75.054 20.000,74.073 20.000 C 73.024 20.000,72.333 20.066,72.333 20.167 C 72.333 20.263,71.806 20.333,71.083 20.333 C 70.396 20.333,69.833 20.399,69.833 20.480 C 69.833 20.561,69.402 20.674,68.875 20.732 C 66.654 20.975,66.306 21.045,66.220 21.268 C 66.163 21.418,65.871 21.500,65.399 21.500 C 64.996 21.500,64.667 21.575,64.667 21.667 C 64.667 21.758,64.367 21.833,64.000 21.833 C 63.633 21.833,63.333 21.908,63.333 22.000 C 63.333 22.092,63.071 22.167,62.750 22.167 C 62.429 22.167,62.167 22.242,62.167 22.333 C 62.167 22.425,61.942 22.500,61.667 22.500 C 61.392 22.500,61.167 22.575,61.167 22.667 C 61.167 22.758,60.904 22.833,60.583 22.833 C 60.262 22.833,60.000 22.908,60.000 23.000 C 60.000 23.092,59.822 23.167,59.604 23.167 C 59.386 23.167,59.114 23.279,59.000 23.417 C 58.886 23.554,58.652 23.667,58.480 23.667 C 58.307 23.667,58.167 23.742,58.167 23.833 C 58.167 23.925,57.979 24.000,57.750 24.000 C 57.521 24.000,57.333 24.075,57.333 24.167 C 57.333 24.258,57.146 24.333,56.917 24.333 C 56.688 24.333,56.500 24.408,56.500 24.500 C 56.500 24.592,56.390 24.667,56.255 24.667 C 55.981 24.667,54.891 25.242,54.487 25.600 C 54.342 25.728,54.136 25.833,54.029 25.833 C 53.921 25.833,53.833 25.908,53.833 26.000 C 53.833 26.092,53.700 26.167,53.537 26.167 C 53.374 26.167,53.132 26.317,53.000 26.500 C 52.868 26.683,52.626 26.833,52.463 26.833 C 52.300 26.833,52.167 26.908,52.167 27.000 C 52.167 27.092,52.054 27.167,51.917 27.167 C 51.779 27.167,51.667 27.242,51.667 27.333 C 51.667 27.425,51.564 27.500,51.438 27.500 C 51.312 27.500,50.985 27.762,50.711 28.083 C 50.437 28.404,50.090 28.667,49.940 28.667 C 49.789 28.667,49.667 28.742,49.667 28.833 C 49.667 28.925,49.589 29.000,49.494 29.000 C 49.313 29.000,48.167 30.084,48.167 30.256 C 48.167 30.387,47.721 30.833,47.590 30.833 C 47.427 30.833,46.445 31.867,46.007 32.500 C 45.785 32.821,45.398 33.285,45.148 33.531 C 44.898 33.777,44.566 34.245,44.411 34.572 C 44.256 34.899,44.062 35.167,43.981 35.167 C 43.900 35.167,43.833 35.289,43.833 35.439 C 43.833 35.588,43.700 35.832,43.537 35.980 C 43.122 36.359,42.667 37.107,42.667 37.411 C 42.667 37.552,42.610 37.667,42.542 37.668 C 42.392 37.670,42.000 38.477,42.000 38.783 C 42.000 38.902,41.925 39.000,41.833 39.000 C 41.742 39.000,41.667 39.188,41.667 39.417 C 41.667 39.646,41.592 39.833,41.500 39.833 C 41.408 39.833,41.333 39.983,41.333 40.167 C 41.333 40.350,41.277 40.500,41.208 40.501 C 41.140 40.501,40.947 40.857,40.780 41.292 C 40.613 41.727,40.407 42.214,40.321 42.373 C 40.236 42.532,40.167 42.809,40.167 42.988 C 40.167 43.167,40.092 43.360,40.000 43.417 C 39.908 43.473,39.833 43.736,39.833 44.000 C 39.833 44.264,39.758 44.527,39.667 44.583 C 39.575 44.640,39.500 44.982,39.500 45.343 C 39.500 45.704,39.425 46.000,39.333 46.000 C 39.242 46.000,39.167 46.300,39.167 46.667 C 39.167 47.033,39.096 47.333,39.010 47.333 C 38.924 47.333,38.803 47.671,38.741 48.083 C 38.679 48.496,38.562 48.833,38.481 48.833 C 38.400 48.833,38.333 49.091,38.333 49.407 C 38.333 49.722,38.258 50.027,38.167 50.083 C 38.075 50.140,38.000 50.482,38.000 50.843 C 38.000 51.204,37.925 51.500,37.833 51.500 C 37.742 51.500,37.667 51.800,37.667 52.167 C 37.667 52.533,37.592 52.833,37.500 52.833 C 37.408 52.833,37.333 53.133,37.333 53.500 C 37.333 53.867,37.258 54.167,37.167 54.167 C 37.075 54.167,37.000 54.452,37.000 54.800 C 37.000 55.148,36.936 55.505,36.857 55.592 C 36.641 55.832,36.167 57.422,36.167 57.906 C 36.167 58.141,36.092 58.333,36.000 58.333 C 35.908 58.333,35.833 58.633,35.833 59.000 C 35.833 59.367,35.758 59.667,35.667 59.667 C 35.575 59.667,35.500 59.967,35.500 60.333 C 35.500 60.700,35.425 61.000,35.333 61.000 C 35.242 61.000,35.167 61.337,35.167 61.750 C 35.167 62.163,35.092 62.500,35.000 62.500 C 34.908 62.500,34.833 62.762,34.833 63.083 C 34.833 63.404,34.758 63.667,34.667 63.667 C 34.575 63.667,34.500 63.935,34.500 64.262 C 34.500 64.589,34.387 64.970,34.250 65.107 C 34.112 65.245,34.000 65.610,34.000 65.919 C 34.000 66.228,33.925 66.527,33.833 66.583 C 33.742 66.640,33.667 66.944,33.667 67.260 C 33.667 67.575,33.600 67.833,33.518 67.833 C 33.435 67.833,33.323 68.133,33.268 68.500 C 33.212 68.867,33.121 69.467,33.066 69.833 C 33.010 70.200,32.898 70.500,32.816 70.500 C 32.734 70.500,32.667 70.800,32.667 71.167 C 32.667 71.533,32.592 71.833,32.500 71.833 C 32.408 71.833,32.333 72.139,32.333 72.512 C 32.333 72.893,32.224 73.300,32.083 73.440 C 31.946 73.578,31.833 73.906,31.833 74.169 C 31.833 74.432,31.767 74.688,31.685 74.739 C 31.545 74.825,31.447 75.246,31.226 76.708 C 31.174 77.052,31.065 77.333,30.982 77.333 C 30.900 77.333,30.833 77.633,30.833 78.000 C 30.833 78.367,30.758 78.667,30.667 78.667 C 30.575 78.667,30.500 79.004,30.500 79.417 C 30.500 79.829,30.425 80.167,30.333 80.167 C 30.242 80.167,30.167 80.459,30.167 80.816 C 30.167 81.208,30.077 81.499,29.941 81.551 C 29.735 81.630,29.663 81.898,29.384 83.625 C 29.336 83.923,29.230 84.167,29.148 84.167 C 29.067 84.167,29.000 84.467,29.000 84.833 C 29.000 85.200,28.925 85.500,28.833 85.500 C 28.742 85.500,28.667 85.837,28.667 86.250 C 28.667 86.662,28.592 87.000,28.500 87.000 C 28.408 87.000,28.333 87.258,28.333 87.573 C 28.333 87.889,28.258 88.193,28.167 88.250 C 28.075 88.307,28.000 88.565,28.000 88.824 C 28.000 89.083,27.888 89.510,27.751 89.773 C 27.614 90.035,27.502 90.414,27.501 90.615 C 27.500 90.816,27.425 91.027,27.333 91.083 C 27.242 91.140,27.167 91.440,27.167 91.750 C 27.167 92.060,27.092 92.360,27.000 92.417 C 26.908 92.473,26.833 92.815,26.833 93.177 C 26.833 93.538,26.758 93.833,26.667 93.833 C 26.575 93.833,26.500 94.133,26.500 94.500 C 26.500 94.867,26.425 95.167,26.333 95.167 C 26.242 95.167,26.167 95.429,26.167 95.750 C 26.167 96.071,26.092 96.333,26.000 96.333 C 25.908 96.333,25.833 96.671,25.833 97.083 C 25.833 97.496,25.759 97.833,25.669 97.833 C 25.578 97.833,25.456 98.135,25.397 98.504 C 25.338 98.872,25.224 99.214,25.145 99.264 C 25.065 99.313,25.000 99.649,25.000 100.010 C 25.000 100.371,24.925 100.667,24.833 100.667 C 24.742 100.667,24.667 100.925,24.667 101.240 C 24.667 101.556,24.592 101.860,24.500 101.917 C 24.408 101.973,24.333 102.278,24.333 102.593 C 24.333 102.909,24.258 103.167,24.167 103.167 C 24.075 103.167,24.000 103.504,24.000 103.917 C 24.000 104.329,23.925 104.667,23.833 104.667 C 23.742 104.667,23.667 104.967,23.667 105.333 C 23.667 105.700,23.604 106.000,23.528 106.000 C 23.389 106.000,23.050 107.119,22.885 108.127 C 22.837 108.425,22.730 108.711,22.648 108.761 C 22.391 108.921,22.473 112.062,22.753 112.731 C 23.167 113.722,24.347 115.000,24.848 115.000 C 25.013 115.000,25.193 115.075,25.250 115.167 C 25.307 115.258,25.607 115.333,25.917 115.333 C 26.227 115.333,26.527 115.408,26.583 115.500 C 26.650 115.607,29.360 115.667,34.167 115.667 C 38.974 115.667,41.684 115.607,41.750 115.500 C 41.807 115.408,42.186 115.333,42.593 115.333 C 43.000 115.333,43.333 115.258,43.333 115.167 C 43.333 115.075,43.521 115.000,43.750 115.000 C 43.979 115.000,44.167 114.925,44.167 114.833 C 44.167 114.742,44.317 114.667,44.500 114.667 C 44.683 114.667,44.833 114.597,44.833 114.511 C 44.833 114.426,44.997 114.304,45.197 114.240 C 45.628 114.104,47.667 112.058,47.667 111.762 C 47.667 111.650,47.854 111.382,48.083 111.167 C 48.313 110.951,48.500 110.643,48.500 110.481 C 48.500 110.319,48.575 110.140,48.667 110.083 C 48.758 110.027,48.833 109.722,48.833 109.407 C 48.833 109.091,48.908 108.833,49.000 108.833 C 49.092 108.833,49.167 108.571,49.167 108.250 C 49.167 107.929,49.242 107.667,49.333 107.667 C 49.425 107.667,49.500 107.367,49.500 107.000 C 49.500 106.633,49.575 106.333,49.667 106.333 C 49.758 106.333,49.833 106.002,49.833 105.597 C 49.833 105.192,49.912 104.835,50.009 104.803 C 50.185 104.744,50.457 103.882,50.617 102.873 C 50.665 102.575,50.770 102.289,50.852 102.239 C 50.933 102.188,51.000 101.851,51.000 101.490 C 51.000 101.129,51.075 100.833,51.167 100.833 C 51.258 100.833,51.333 100.533,51.333 100.167 C 51.333 99.800,51.408 99.500,51.500 99.500 C 51.592 99.500,51.667 99.237,51.667 98.917 C 51.667 98.596,51.742 98.333,51.833 98.333 C 51.925 98.333,52.000 98.040,52.000 97.681 C 52.000 97.322,52.080 97.001,52.177 96.969 C 52.275 96.936,52.397 96.592,52.449 96.205 C 52.501 95.817,52.609 95.500,52.689 95.500 C 52.768 95.500,52.833 95.200,52.833 94.833 C 52.833 94.467,52.908 94.167,53.000 94.167 C 53.092 94.167,53.167 93.909,53.167 93.593 C 53.167 93.278,53.242 92.973,53.333 92.917 C 53.425 92.860,53.500 92.518,53.500 92.157 C 53.500 91.796,53.575 91.500,53.667 91.500 C 53.758 91.500,53.833 91.200,53.833 90.833 C 53.833 90.467,53.908 90.167,54.000 90.167 C 54.092 90.167,54.167 89.835,54.167 89.431 C 54.167 89.026,54.249 88.667,54.349 88.634 C 54.449 88.600,54.594 88.275,54.671 87.911 C 54.748 87.548,54.899 86.950,55.006 86.583 C 55.113 86.217,55.238 85.635,55.285 85.292 C 55.331 84.948,55.435 84.667,55.518 84.667 C 55.600 84.667,55.667 84.367,55.667 84.000 C 55.667 83.633,55.742 83.333,55.833 83.333 C 55.925 83.333,56.000 82.996,56.000 82.583 C 56.000 82.171,56.075 81.833,56.167 81.833 C 56.258 81.833,56.333 81.533,56.333 81.167 C 56.333 80.800,56.408 80.500,56.500 80.500 C 56.592 80.500,56.667 80.331,56.668 80.125 C 56.668 79.919,56.781 79.535,56.918 79.273 C 57.055 79.010,57.167 78.583,57.167 78.324 C 57.167 78.065,57.242 77.807,57.333 77.750 C 57.425 77.693,57.500 77.393,57.500 77.083 C 57.500 76.773,57.575 76.473,57.667 76.417 C 57.758 76.360,57.833 76.033,57.833 75.690 C 57.833 74.594,56.321 74.667,79.117 74.667 L 100.000 74.667 100.000 92.573 C 100.000 104.332,100.057 110.516,100.167 110.583 C 100.258 110.640,100.333 110.865,100.333 111.083 C 100.333 111.302,100.408 111.527,100.500 111.583 C 100.592 111.640,100.667 111.834,100.667 112.015 C 100.667 112.196,100.779 112.387,100.917 112.440 C 101.054 112.492,101.167 112.640,101.167 112.768 C 101.167 112.896,101.242 113.000,101.333 113.000 C 101.425 113.000,101.500 113.076,101.500 113.168 C 101.500 113.429,102.362 114.333,102.611 114.333 C 102.733 114.333,102.833 114.408,102.833 114.500 C 102.833 114.592,102.946 114.667,103.083 114.667 C 103.221 114.667,103.333 114.742,103.333 114.833 C 103.333 114.925,103.479 115.000,103.657 115.000 C 103.835 115.000,104.027 115.075,104.083 115.167 C 104.140 115.258,104.477 115.333,104.833 115.333 C 105.189 115.333,105.527 115.408,105.583 115.500 C 105.649 115.607,108.248 115.667,112.833 115.667 C 117.418 115.667,120.017 115.607,120.083 115.500 C 120.140 115.408,120.477 115.333,120.833 115.333 C 121.189 115.333,121.527 115.258,121.583 115.167 C 121.640 115.075,121.832 115.000,122.010 115.000 C 122.188 115.000,122.333 114.925,122.333 114.833 C 122.333 114.742,122.452 114.667,122.597 114.667 C 123.170 114.667,125.167 112.337,125.167 111.669 C 125.167 111.484,125.242 111.333,125.333 111.333 C 125.425 111.333,125.500 111.011,125.500 110.617 C 125.500 110.223,125.578 109.822,125.673 109.727 C 125.790 109.610,125.843 103.988,125.836 92.277 L 125.827 75.000 145.840 75.000 C 156.847 75.000,165.816 75.060,165.771 75.133 C 165.725 75.207,165.956 75.285,166.284 75.307 C 166.612 75.329,167.036 75.456,167.227 75.590 C 167.418 75.724,167.707 75.833,167.870 75.833 C 168.033 75.833,168.167 75.908,168.167 76.000 C 168.167 76.092,168.317 76.167,168.500 76.167 C 168.683 76.167,168.833 76.242,168.833 76.333 C 168.833 76.425,168.983 76.500,169.167 76.500 C 169.350 76.500,169.500 76.575,169.500 76.667 C 169.500 76.758,169.582 76.833,169.683 76.833 C 169.917 76.833,171.246 78.225,171.793 79.042 C 172.023 79.385,172.276 79.667,172.355 79.667 C 172.435 79.667,172.500 79.854,172.500 80.083 C 172.500 80.313,172.575 80.500,172.667 80.500 C 172.758 80.500,172.833 80.646,172.833 80.823 C 172.833 81.001,172.908 81.193,173.000 81.250 C 173.092 81.307,173.167 81.611,173.167 81.927 C 173.167 82.242,173.242 82.500,173.333 82.500 C 173.429 82.500,173.500 83.017,173.500 83.717 C 173.500 84.386,173.582 85.016,173.683 85.116 C 173.800 85.233,173.828 85.651,173.761 86.275 C 173.703 86.811,173.615 87.794,173.565 88.458 C 173.515 89.123,173.405 89.667,173.320 89.667 C 173.236 89.667,173.167 89.893,173.167 90.169 C 173.167 90.445,173.097 90.801,173.011 90.961 C 172.925 91.120,172.757 91.494,172.637 91.792 C 172.517 92.090,172.362 92.333,172.293 92.333 C 172.223 92.333,172.167 92.408,172.167 92.500 C 172.167 92.727,171.006 94.349,170.589 94.705 C 170.402 94.864,170.156 95.073,170.042 95.170 C 169.927 95.267,169.833 95.287,169.833 95.215 C 169.833 95.143,169.656 95.290,169.439 95.542 C 169.222 95.794,168.922 96.000,168.772 96.000 C 168.623 96.000,168.500 96.057,168.500 96.126 C 168.500 96.273,167.312 96.667,166.869 96.667 C 166.703 96.667,166.490 96.744,166.396 96.838 C 166.281 96.952,160.881 97.007,150.021 97.002 C 139.051 96.998,133.713 97.053,133.492 97.171 C 133.177 97.339,133.167 97.569,133.167 104.256 C 133.167 108.752,133.108 111.167,133.000 111.167 C 132.908 111.167,132.833 111.500,132.833 111.907 C 132.833 112.314,132.758 112.693,132.667 112.750 C 132.575 112.807,132.500 113.064,132.500 113.323 C 132.500 113.581,132.388 113.885,132.252 113.998 C 132.115 114.112,132.040 114.262,132.083 114.333 C 132.127 114.404,132.051 114.555,131.915 114.668 C 131.778 114.781,131.667 115.052,131.667 115.270 L 131.667 115.667 150.490 115.667 C 162.859 115.667,169.349 115.610,169.417 115.500 C 169.473 115.408,170.115 115.333,170.843 115.333 C 171.614 115.333,172.167 115.264,172.167 115.167 C 172.167 115.075,172.564 115.000,173.050 115.000 C 173.536 115.000,174.005 114.932,174.092 114.849 C 174.179 114.767,174.588 114.658,175.000 114.607 C 176.393 114.437,177.000 114.298,177.000 114.148 C 177.000 114.067,177.211 114.000,177.468 114.000 C 177.726 114.000,178.082 113.890,178.260 113.755 C 178.438 113.621,178.785 113.508,179.032 113.505 C 179.279 113.502,179.527 113.425,179.583 113.333 C 179.640 113.242,179.865 113.167,180.083 113.167 C 180.302 113.167,180.527 113.092,180.583 113.000 C 180.640 112.908,180.832 112.833,181.010 112.833 C 181.188 112.833,181.333 112.758,181.333 112.667 C 181.333 112.575,181.484 112.500,181.669 112.500 C 181.854 112.500,182.135 112.429,182.294 112.343 C 182.453 112.257,182.899 112.057,183.284 111.898 C 183.669 111.739,183.946 111.547,183.899 111.471 C 183.852 111.395,184.006 111.333,184.240 111.333 C 184.475 111.333,184.667 111.258,184.667 111.167 C 184.667 111.075,184.817 111.000,185.000 111.000 C 185.183 111.000,185.333 110.925,185.333 110.833 C 185.333 110.742,185.446 110.667,185.583 110.667 C 185.721 110.667,185.833 110.592,185.833 110.500 C 185.833 110.408,185.983 110.333,186.167 110.333 C 186.350 110.333,186.500 110.258,186.500 110.167 C 186.500 110.075,186.605 110.000,186.733 110.000 C 186.860 110.000,187.142 109.814,187.358 109.586 C 187.573 109.359,187.830 109.171,187.927 109.170 C 188.024 109.168,188.249 109.033,188.427 108.870 C 188.605 108.708,189.012 108.391,189.333 108.167 C 189.654 107.943,190.345 107.345,190.868 106.838 C 191.392 106.331,192.014 105.729,192.250 105.500 C 193.093 104.684,194.333 103.272,194.333 103.129 C 194.333 103.049,194.521 102.810,194.750 102.598 C 194.979 102.386,195.167 102.106,195.167 101.976 C 195.167 101.846,195.317 101.632,195.500 101.500 C 195.683 101.368,195.833 101.126,195.833 100.963 C 195.833 100.800,195.908 100.667,196.000 100.667 C 196.092 100.667,196.167 100.521,196.167 100.343 C 196.167 100.165,196.242 99.973,196.333 99.917 C 196.425 99.860,196.500 99.656,196.500 99.462 C 196.500 99.269,196.552 99.163,196.616 99.227 C 196.742 99.353,197.333 98.247,197.333 97.887 C 197.333 97.766,197.408 97.667,197.500 97.667 C 197.592 97.667,197.667 97.484,197.667 97.260 C 197.667 97.036,197.742 96.807,197.833 96.750 C 197.925 96.693,198.000 96.464,198.000 96.240 C 198.000 96.016,198.060 95.833,198.133 95.833 C 198.206 95.833,198.284 95.552,198.307 95.208 C 198.329 94.865,198.420 94.558,198.507 94.528 C 198.595 94.497,198.667 94.147,198.667 93.750 C 198.667 93.353,198.743 93.002,198.837 92.971 C 198.931 92.940,199.046 92.540,199.093 92.082 C 199.140 91.624,199.255 90.987,199.350 90.667 C 199.734 89.368,199.295 81.015,198.835 80.862 C 198.742 80.831,198.667 80.474,198.667 80.069 C 198.667 79.665,198.592 79.333,198.500 79.333 C 198.408 79.333,198.333 79.075,198.333 78.760 C 198.333 78.444,198.258 78.140,198.167 78.083 C 198.075 78.027,198.000 77.834,198.000 77.655 C 198.000 77.475,197.913 77.161,197.807 76.956 C 197.403 76.174,197.333 75.997,197.333 75.752 C 197.333 75.614,197.258 75.500,197.167 75.500 C 197.075 75.500,197.000 75.348,197.000 75.161 C 197.000 74.975,196.887 74.780,196.750 74.727 C 196.612 74.674,196.500 74.489,196.500 74.316 C 196.500 74.142,196.425 74.000,196.333 74.000 C 196.242 74.000,196.167 73.850,196.167 73.667 C 196.167 73.483,196.092 73.333,196.000 73.333 C 195.908 73.333,195.833 73.221,195.833 73.083 C 195.833 72.946,195.777 72.833,195.707 72.833 C 195.638 72.833,195.490 72.627,195.378 72.375 C 195.172 71.909,194.509 71.067,193.556 70.058 C 193.265 69.751,193.065 69.500,193.111 69.500 C 193.220 69.500,192.087 68.427,191.088 67.583 C 190.654 67.217,190.199 66.823,190.078 66.708 C 189.956 66.594,189.757 66.500,189.635 66.500 C 189.513 66.500,189.325 66.358,189.216 66.183 C 189.026 65.879,188.114 65.333,187.796 65.333 C 187.509 65.333,187.067 64.783,187.293 64.708 C 187.407 64.670,187.500 64.533,187.500 64.403 C 187.500 64.273,187.568 64.167,187.652 64.167 C 187.788 64.167,189.298 62.728,190.031 61.900 C 190.185 61.726,190.579 61.333,190.906 61.028 C 191.233 60.722,191.500 60.366,191.500 60.236 C 191.500 60.106,191.575 60.000,191.667 60.000 C 191.758 60.000,191.833 59.887,191.833 59.750 C 191.833 59.612,191.908 59.500,192.000 59.500 C 192.092 59.500,192.167 59.391,192.167 59.258 C 192.167 59.125,192.271 58.957,192.398 58.883 C 192.683 58.719,193.333 57.580,193.333 57.245 C 193.333 57.110,193.408 57.000,193.500 57.000 C 193.592 57.000,193.667 56.850,193.667 56.667 C 193.667 56.483,193.742 56.333,193.833 56.333 C 193.925 56.333,194.000 56.188,194.000 56.010 C 194.000 55.832,194.075 55.640,194.167 55.583 C 194.258 55.527,194.333 55.306,194.333 55.094 C 194.333 54.881,194.438 54.621,194.565 54.515 C 194.791 54.328,194.926 53.863,195.102 52.667 C 195.149 52.346,195.256 51.933,195.340 51.750 C 195.718 50.922,195.704 42.333,195.324 42.333 C 195.237 42.333,195.167 41.963,195.167 41.510 C 195.167 41.057,195.092 40.640,195.000 40.583 C 194.908 40.527,194.833 40.231,194.833 39.927 C 194.833 39.623,194.721 39.281,194.583 39.167 C 194.446 39.053,194.333 38.743,194.333 38.480 C 194.333 38.216,194.258 38.000,194.167 38.000 C 194.075 38.000,194.000 37.775,194.000 37.500 C 194.000 37.225,193.925 37.000,193.833 37.000 C 193.742 37.000,193.667 36.813,193.667 36.583 C 193.667 36.354,193.592 36.167,193.500 36.167 C 193.408 36.167,193.333 36.069,193.333 35.949 C 193.333 35.618,192.491 34.000,192.318 34.000 C 192.235 34.000,192.167 33.867,192.167 33.703 C 192.167 33.540,192.017 33.299,191.833 33.167 C 191.650 33.035,191.500 32.793,191.500 32.630 C 191.500 32.467,191.425 32.333,191.333 32.333 C 191.242 32.333,191.167 32.253,191.167 32.155 C 191.167 32.057,191.073 31.874,190.958 31.748 C 190.844 31.623,190.450 31.172,190.083 30.745 C 189.083 29.583,188.205 28.667,188.092 28.667 C 188.037 28.667,187.660 28.348,187.255 27.958 C 186.284 27.023,186.127 26.899,185.416 26.500 C 185.084 26.313,184.611 25.974,184.366 25.747 C 184.121 25.519,183.826 25.333,183.710 25.333 C 183.595 25.333,183.500 25.258,183.500 25.167 C 183.500 25.075,183.350 25.000,183.167 25.000 C 182.983 25.000,182.833 24.925,182.833 24.833 C 182.833 24.742,182.683 24.667,182.500 24.667 C 182.317 24.667,182.167 24.610,182.167 24.541 C 182.167 24.471,181.923 24.314,181.625 24.191 C 180.436 23.699,180.010 23.484,179.914 23.329 C 179.859 23.240,179.668 23.167,179.490 23.167 C 179.312 23.167,179.167 23.092,179.167 23.000 C 179.167 22.908,178.942 22.833,178.667 22.833 C 178.392 22.833,178.167 22.758,178.167 22.667 C 178.167 22.575,177.979 22.500,177.750 22.500 C 177.521 22.500,177.333 22.425,177.333 22.333 C 177.333 22.242,177.113 22.167,176.843 22.167 C 176.574 22.167,176.307 22.092,176.250 22.000 C 176.193 21.908,175.893 21.833,175.583 21.833 C 175.273 21.833,174.973 21.758,174.917 21.667 C 174.860 21.575,174.612 21.498,174.365 21.495 C 174.118 21.492,173.771 21.379,173.593 21.245 C 173.415 21.110,172.984 21.000,172.635 21.000 C 172.286 21.000,172.000 20.925,172.000 20.833 C 172.000 20.742,171.592 20.667,171.093 20.667 C 170.594 20.667,170.140 20.592,170.083 20.500 C 170.027 20.408,169.464 20.333,168.833 20.333 C 168.202 20.333,167.640 20.258,167.583 20.167 C 167.523 20.069,166.582 20.000,165.323 20.000 C 163.989 20.000,163.167 19.936,163.167 19.832 C 163.167 19.721,157.957 19.679,147.626 19.707 L 132.086 19.750 132.076 20.397 C 132.071 20.752,132.165 21.141,132.284 21.260 C 132.403 21.379,132.500 21.669,132.500 21.905 C 132.500 22.140,132.575 22.333,132.667 22.333 C 132.758 22.333,132.833 22.708,132.833 23.167 C 132.833 23.625,132.908 24.000,133.000 24.000 C 133.109 24.000,133.167 26.500,133.167 31.167 L 133.167 38.333 147.740 38.333 C 157.276 38.333,162.349 38.391,162.417 38.500 C 162.473 38.592,162.890 38.667,163.343 38.667 C 163.796 38.667,164.167 38.742,164.167 38.833 C 164.167 38.925,164.354 39.000,164.583 39.000 C 164.813 39.000,165.000 39.075,165.000 39.167 C 165.000 39.258,165.118 39.333,165.262 39.333 C 165.406 39.333,165.623 39.427,165.743 39.542 C 165.864 39.656,166.178 39.900,166.440 40.083 C 167.243 40.643,168.500 41.957,168.500 42.236 C 168.500 42.381,168.575 42.500,168.667 42.500 C 168.758 42.500,168.833 42.579,168.833 42.675 C 168.833 42.771,168.983 43.160,169.167 43.539 C 169.350 43.919,169.500 44.408,169.500 44.626 C 169.500 44.844,169.580 45.172,169.678 45.355 C 169.776 45.538,169.856 46.590,169.856 47.699 C 169.856 48.904,169.785 49.782,169.678 49.889 C 169.580 49.986,169.500 50.352,169.500 50.700 C 169.500 51.048,169.425 51.333,169.333 51.333 C 169.242 51.333,169.167 51.479,169.167 51.657 C 169.167 51.835,169.092 52.027,169.000 52.083 C 168.908 52.140,168.833 52.332,168.833 52.510 C 168.833 52.688,168.758 52.833,168.667 52.833 C 168.575 52.833,168.500 52.947,168.500 53.087 C 168.500 53.412,166.239 55.667,165.913 55.667 C 165.778 55.667,165.667 55.742,165.667 55.833 C 165.667 55.925,165.479 56.000,165.250 56.000 C 165.021 56.000,164.833 56.075,164.833 56.167 C 164.833 56.258,164.608 56.333,164.333 56.333 C 164.058 56.333,163.833 56.402,163.833 56.486 C 163.833 56.802,160.957 56.866,143.623 56.934 L 125.829 57.003 125.836 41.140 C 125.841 30.478,125.787 25.220,125.672 25.105 C 125.577 25.011,125.500 24.648,125.500 24.300 C 125.500 23.952,125.425 23.667,125.333 23.667 C 125.242 23.667,125.167 23.516,125.167 23.331 C 125.167 22.865,124.858 22.331,123.989 21.292 C 123.701 20.948,123.395 20.667,123.309 20.667 C 123.223 20.667,122.992 20.517,122.795 20.333 C 122.598 20.150,122.264 20.000,122.052 20.000 C 121.840 20.000,121.667 19.925,121.667 19.833 C 121.667 19.603,76.059 19.603,75.917 19.833 M100.000 47.833 L 100.000 56.667 81.417 56.667 C 69.139 56.667,62.833 56.610,62.833 56.500 C 62.833 56.408,62.908 56.333,63.000 56.333 C 63.092 56.333,63.167 56.077,63.167 55.764 C 63.167 55.451,63.247 55.168,63.344 55.135 C 63.442 55.103,63.564 54.759,63.616 54.371 C 63.668 53.984,63.776 53.667,63.855 53.667 C 63.935 53.667,64.000 53.367,64.000 53.000 C 64.000 52.633,64.075 52.333,64.167 52.333 C 64.258 52.333,64.333 52.113,64.333 51.843 C 64.333 51.574,64.408 51.307,64.500 51.250 C 64.592 51.193,64.667 50.926,64.667 50.657 C 64.667 50.387,64.742 50.167,64.833 50.167 C 64.925 50.167,65.000 50.021,65.000 49.843 C 65.000 49.665,65.075 49.473,65.167 49.417 C 65.258 49.360,65.333 49.168,65.333 48.990 C 65.333 48.812,65.396 48.667,65.473 48.667 C 65.550 48.667,65.756 48.368,65.932 48.002 C 66.107 47.636,66.306 47.336,66.375 47.335 C 66.444 47.334,66.500 47.183,66.500 47.000 C 66.500 46.817,66.575 46.667,66.667 46.667 C 66.758 46.667,66.833 46.571,66.833 46.453 C 66.833 46.336,66.983 46.132,67.167 46.000 C 67.350 45.868,67.500 45.626,67.500 45.463 C 67.500 45.300,67.569 45.167,67.653 45.167 C 67.737 45.167,68.056 44.893,68.361 44.560 C 69.488 43.328,70.213 42.667,70.437 42.667 C 70.563 42.667,70.667 42.592,70.667 42.500 C 70.667 42.408,70.745 42.333,70.840 42.333 C 71.022 42.333,71.249 42.167,71.917 41.542 C 72.138 41.335,72.472 41.167,72.659 41.167 C 72.847 41.167,73.000 41.092,73.000 41.000 C 73.000 40.908,73.150 40.833,73.333 40.833 C 73.517 40.833,73.667 40.758,73.667 40.667 C 73.667 40.575,73.817 40.500,74.000 40.500 C 74.183 40.500,74.333 40.425,74.333 40.333 C 74.333 40.242,74.554 40.167,74.823 40.167 C 75.093 40.167,75.360 40.092,75.417 40.000 C 75.473 39.908,75.688 39.833,75.895 39.833 C 76.101 39.833,76.415 39.723,76.593 39.589 C 76.771 39.454,77.235 39.342,77.625 39.339 C 78.015 39.336,78.333 39.258,78.333 39.167 C 78.333 39.057,82.056 39.000,89.167 39.000 L 100.000 39.000 100.000 47.833 M209.500 65.146 C 209.500 65.226,209.281 65.336,209.013 65.389 C 208.505 65.491,207.833 66.083,207.833 66.430 C 207.833 66.541,207.721 66.674,207.583 66.727 C 207.446 66.780,207.333 66.975,207.333 67.161 C 207.333 67.348,207.258 67.500,207.167 67.500 C 206.863 67.500,206.949 79.336,207.258 80.076 C 207.551 80.779,208.535 81.833,208.897 81.833 C 209.030 81.833,209.164 81.909,209.195 82.002 C 209.273 82.237,248.393 82.237,248.472 82.002 C 248.502 81.909,248.637 81.833,248.771 81.833 C 249.056 81.833,249.833 81.100,249.833 80.831 C 249.833 80.730,249.899 80.687,249.979 80.737 C 250.059 80.786,250.246 80.507,250.395 80.116 C 250.716 79.276,250.812 67.776,250.500 67.583 C 250.408 67.527,250.333 67.335,250.333 67.157 C 250.333 66.979,250.221 66.833,250.083 66.833 C 249.944 66.833,249.833 66.685,249.833 66.500 C 249.833 66.317,249.758 66.167,249.667 66.167 C 249.575 66.167,249.500 66.054,249.500 65.917 C 249.500 65.779,249.387 65.667,249.250 65.667 C 249.112 65.667,249.000 65.592,249.000 65.500 C 249.000 65.408,248.854 65.333,248.677 65.333 C 248.499 65.333,248.307 65.258,248.250 65.167 C 248.119 64.955,209.500 64.934,209.500 65.146 " stroke="none" fill="#2bb2e3" fill-rule="evenodd"></path><path id="path4" d="M125.913 41.583 C 125.913 50.108,125.934 53.571,125.958 49.279 C 125.983 44.987,125.983 38.012,125.958 33.779 C 125.934 29.546,125.913 33.058,125.913 41.583 M125.914 91.917 C 125.914 101.267,125.934 105.067,125.958 100.362 C 125.983 95.657,125.983 88.007,125.958 83.362 C 125.934 78.717,125.914 82.567,125.914 91.917 M219.458 82.292 C 224.615 82.316,233.052 82.316,238.208 82.292 C 243.365 82.267,239.146 82.247,228.833 82.247 C 218.521 82.247,214.302 82.267,219.458 82.292 " stroke="none" fill="#00ffff" fill-rule="evenodd"></path></g></svg>